# Blender v2.90.0 OBJ File: ''
# www.blender.org
mtllib car.mtl
o Cube.015_Cube.028
v -0.832568 0.148827 2.134098
v -0.857068 0.431545 2.203620
v -1.065973 0.148826 -1.781710
v -1.065973 0.705464 -1.781710
v -0.884957 0.705464 1.033690
v -0.917029 0.705464 -1.684574
v -0.721404 1.146829 0.495769
v -0.721404 1.139856 -1.338383
v -0.883070 0.538150 1.979218
v -1.003631 0.226359 -1.839906
v -1.003631 0.705464 -1.839906
v -0.772897 0.148827 2.200921
v -0.708328 0.431545 2.270444
v -0.852885 0.705464 -1.742716
v -0.672256 1.171316 -1.396525
v -0.607433 1.235573 0.495524
v -1.065973 0.594345 -1.781710
v -1.003631 0.594345 -1.839906
v -0.917029 0.705464 -0.325442
v -0.721734 1.250959 -0.791418
v -0.672256 1.313069 -0.808252
v -1.003631 1.127244 -2.253444
v -0.852885 1.127244 -2.093849
v -0.852885 1.058437 -2.093849
v -1.003631 1.058437 -2.253444
v -0.874246 0.581499 1.462299
v -0.879365 0.504651 1.647827
v -0.901518 0.504651 1.276771
v -0.875091 0.319123 1.724675
v -0.906370 0.319123 1.199923
v -0.876800 0.148827 1.654136
v -0.899669 0.148827 1.270462
v -1.019802 0.586894 -1.044140
v -1.037488 0.501804 -1.249565
v -1.015496 0.501804 -0.838714
v -1.010941 0.296379 -0.753624
v -1.042043 0.296379 -1.334655
v -1.010811 0.148826 -0.814742
v -1.036984 0.148826 -1.273537
v -0.052745 0.148827 2.200921
v -0.077573 0.148826 -1.273536
v -0.794740 0.734520 1.049479
v -0.956010 0.734520 0.930737
v -0.826120 0.734520 1.092098
v -0.987391 0.734520 0.973356
v -0.794741 0.842068 1.049479
v -0.956011 0.842068 0.930737
v -0.826121 0.842068 1.092098
v -0.987391 0.842068 0.973356
v -0.842947 0.734520 1.013985
v -0.874327 0.734520 1.056604
v -0.874327 0.842068 1.056604
v -0.842947 0.842068 1.013985
v -0.826120 0.679806 1.092098
v -0.794740 0.679806 1.049479
v -0.874327 0.679806 1.056604
v -0.842947 0.679806 1.013985
v -1.003631 1.127244 -2.253444
v -0.852885 1.127244 -2.093849
v -0.852885 1.058437 -2.093849
v -1.003631 1.058437 -2.253444
v 0.671985 0.148827 2.134098
v 0.696485 0.431545 2.203620
v 0.905390 0.148826 -1.781710
v 0.905390 0.705464 -1.781710
v 0.724374 0.705464 1.033690
v 0.756446 0.705464 -1.684574
v 0.560821 1.146829 0.495769
v 0.560821 1.139856 -1.338383
v 0.722487 0.538150 1.979218
v 0.843048 0.226359 -1.839906
v 0.843048 0.705464 -1.839906
v 0.612314 0.148827 2.200921
v 0.547745 0.431545 2.270444
v 0.692302 0.705464 -1.742716
v 0.511673 1.171316 -1.396525
v 0.446850 1.235573 0.495524
v 0.905390 0.594345 -1.781710
v 0.843048 0.594345 -1.839906
v 0.756446 0.705464 -0.325442
v 0.561151 1.250959 -0.791418
v 0.511673 1.313069 -0.808252
v 0.843048 1.127244 -2.253444
v 0.692302 1.127244 -2.093849
v 0.692302 1.058437 -2.093849
v 0.843048 1.058437 -2.253444
v 0.713663 0.581499 1.462299
v 0.718782 0.504651 1.647827
v 0.740935 0.504651 1.276771
v 0.714508 0.319123 1.724675
v 0.745786 0.319123 1.199923
v 0.716217 0.148827 1.654136
v 0.739086 0.148827 1.270462
v 0.859219 0.586894 -1.044140
v 0.876905 0.501804 -1.249565
v 0.854913 0.501804 -0.838714
v 0.850358 0.296379 -0.753624
v 0.881460 0.296379 -1.334655
v 0.850228 0.148826 -0.814742
v 0.876401 0.148826 -1.273537
v -0.080292 0.226359 -1.839906
v -0.080292 0.705464 -1.839906
v -0.107838 0.148827 2.200921
v -0.080292 0.431545 2.270444
v -0.080292 0.705464 -1.742716
v -0.080292 1.171316 -1.396525
v -0.080292 1.235573 0.495524
v -0.080292 0.538150 1.979218
v -0.080292 0.705464 1.033690
v -0.080292 0.594345 -1.839906
v -0.080292 1.313069 -0.808252
v -0.080292 0.148826 -1.781710
v -0.083010 0.148826 -1.273536
v 0.634157 0.734520 1.049479
v 0.795427 0.734520 0.930737
v 0.665537 0.734520 1.092098
v 0.826808 0.734520 0.973356
v 0.634158 0.842068 1.049479
v 0.795428 0.842068 0.930737
v 0.665538 0.842068 1.092098
v 0.826808 0.842068 0.973356
v 0.682364 0.734520 1.013985
v 0.713744 0.734520 1.056604
v 0.713744 0.842068 1.056604
v 0.682364 0.842068 1.013985
v 0.665537 0.679806 1.092098
v 0.634157 0.679806 1.049479
v 0.713744 0.679806 1.056604
v 0.682364 0.679806 1.013985
v 0.843048 1.127244 -2.253444
v 0.692302 1.127244 -2.093849
v 0.692302 1.058437 -2.093849
v 0.843048 1.058437 -2.253444
v -0.080292 1.127244 -2.093849
v -0.080292 1.127244 -2.253444
v -0.080292 1.058437 -2.253444
v -0.080292 1.058437 -2.093849
vt 0.625000 0.125000
vt 0.625000 0.000000
vt 0.625000 0.000000
vt 0.625000 0.123983
vt 0.625000 0.375000
vt 0.625000 0.333333
vt 0.625000 0.333333
vt 0.625000 0.375000
vt 0.625000 0.250000
vt 0.625000 0.250000
vt 0.375000 0.439887
vt 0.375000 0.347331
vt 0.375000 0.250000
vt 0.375000 0.375000
vt 0.625000 0.916667
vt 0.625000 0.875000
vt 0.625000 0.875000
vt 0.625000 0.916667
vt 0.375000 0.916667
vt 0.375000 1.000000
vt 0.375000 0.857872
vt 0.375000 0.419300
vt 0.375000 0.784386
vt 0.375000 0.875000
vt 0.625000 0.125000
vt 0.625000 0.123983
vt 0.625000 0.000000
vt 0.625000 0.000000
vt 0.625000 0.333333
vt 0.625000 0.333333
vt 0.625000 0.250000
vt 0.625000 0.250000
vt 0.375000 0.439887
vt 0.375000 0.250000
vt 0.375000 0.347331
vt 0.625000 0.916667
vt 0.625000 0.916667
vt 0.375000 0.916667
vt 0.375000 0.875000
vt 0.375000 0.784386
vt 0.375000 0.419300
vt 0.375000 0.857872
vt 0.375000 1.000000
vt 0.625000 0.916667
vt 0.625000 1.000000
vt 0.625000 1.000000
vt 0.625000 1.000000
vt 0.625000 0.625000
vt 0.625000 0.250000
vt 0.575094 0.250000
vt 0.375000 0.338973
vt 0.444220 0.337446
vt 0.537492 0.362880
vt 0.575942 0.413439
vt 0.540725 0.451975
vt 0.447706 0.448072
vt 0.481632 0.783847
vt 0.575659 0.841689
vt 0.604723 0.919104
vt 0.590434 0.902883
vt 0.496704 0.877634
vt 0.625000 0.625000
vt 0.625000 0.625000
vt 0.625000 1.000000
vt 0.625000 0.375000
vt 0.625000 0.333333
vt 0.625000 0.875000
vt 0.575094 0.333333
vt 0.575094 0.375000
vt 0.375000 0.333333
vt 0.625000 0.333333
vt 0.625000 0.333333
vt 0.625000 0.250000
vt 0.625000 0.250000
vt 0.375000 0.375000
vt 0.625000 0.625000
vt 0.625000 0.916667
vt 0.625000 0.875000
vt 0.625000 0.416667
vt 0.625000 0.416667
vt 0.625000 0.416667
vt 0.625000 0.416667
vt 0.483333 0.000000
vt 0.483333 0.250000
vt 0.625000 0.250000
vt 0.625000 0.000000
vt 0.483333 0.500000
vt 0.625000 0.500000
vt 0.483333 0.750000
vt 0.625000 0.750000
vt 0.483333 1.000000
vt 0.625000 1.000000
vt 0.125000 0.500000
vt 0.125000 0.750000
vt 0.375000 0.750000
vt 0.375000 0.500000
vt 0.875000 0.750000
vt 0.875000 0.500000
vt 0.375000 1.000000
vt 0.375000 0.250000
vt 0.125000 0.500000
vt 0.125000 0.750000
vt 0.375000 0.000000
vt 0.375000 0.250000
vt 0.483333 0.250000
vt 0.483333 0.000000
vt 0.375000 1.000000
vt 0.483333 1.000000
vt 0.625000 0.416667
vt 0.625000 0.416667
vt 0.625000 0.416667
vt 0.625000 0.416667
vt 0.625000 1.000000
vt 0.625000 0.916667
vt 0.496704 0.877634
vt 0.590434 0.902883
vt 0.604723 0.919104
vt 0.575659 0.841689
vt 0.481632 0.783847
vt 0.447706 0.448072
vt 0.540725 0.451975
vt 0.575942 0.413439
vt 0.537492 0.362880
vt 0.444220 0.337446
vt 0.375000 0.338973
vt 0.575094 0.250000
vt 0.625000 0.250000
vt 0.625000 0.625000
vt 0.625000 1.000000
vt 0.625000 1.000000
vt 0.625000 0.625000
vt 0.625000 0.625000
vt 0.625000 1.000000
vt 0.625000 0.333333
vt 0.575094 0.333333
vt 0.375000 0.333333
vt 0.625000 0.333333
vt 0.625000 0.333333
vt 0.625000 0.250000
vt 0.625000 0.250000
vt 0.625000 0.916667
vt 0.625000 0.416667
vt 0.625000 0.416667
vt 0.483333 0.000000
vt 0.625000 0.000000
vt 0.625000 0.250000
vt 0.483333 0.250000
vt 0.625000 0.500000
vt 0.483333 0.500000
vt 0.625000 0.750000
vt 0.483333 0.750000
vt 0.625000 1.000000
vt 0.483333 1.000000
vt 0.125000 0.500000
vt 0.375000 0.500000
vt 0.375000 0.750000
vt 0.125000 0.750000
vt 0.875000 0.500000
vt 0.875000 0.750000
vt 0.375000 1.000000
vt 0.375000 0.250000
vt 0.125000 0.750000
vt 0.125000 0.500000
vt 0.375000 0.000000
vt 0.483333 0.000000
vt 0.483333 0.250000
vt 0.375000 0.250000
vt 0.483333 1.000000
vt 0.375000 1.000000
vt 0.625000 0.416667
vt 0.625000 0.416667
vn -0.9308 0.3646 0.0257
vn 0.0000 0.5965 -0.8026
vn -0.9295 0.3682 -0.0216
vn -0.0000 -1.0000 0.0000
vn 0.0000 0.7124 0.7018
vn 0.9308 0.3646 0.0257
vn 0.9295 0.3682 -0.0216
vn -0.5323 -0.1664 0.8301
vn -0.6400 0.6183 -0.4562
vn -0.9914 0.1191 0.0538
vn -0.7373 0.6593 -0.1471
vn -0.5573 0.7169 0.4188
vn 0.0000 1.0000 0.0000
vn 0.0000 -0.2388 0.9711
vn -0.6824 0.0000 -0.7310
vn 0.0000 0.0000 -1.0000
vn -0.6728 0.7367 0.0686
vn 0.5003 -0.6362 -0.5874
vn -0.8212 -0.3995 -0.4074
vn 0.8103 0.3749 0.4503
vn -0.4858 0.6651 0.5671
vn 0.0000 -0.6003 -0.7998
vn 0.0000 0.9982 0.0593
vn 0.0000 0.9847 0.1742
vn 0.0000 0.9722 -0.2343
vn 0.0000 0.9391 0.3437
vn -0.5929 0.0000 0.8053
vn 0.5929 -0.0000 -0.8053
vn 0.8053 0.0000 0.5929
vn -0.8053 -0.0000 -0.5929
vn 0.0000 0.0000 1.0000
vn 0.5323 -0.1664 0.8301
vn 0.6400 0.6183 -0.4562
vn 0.9914 0.1191 0.0538
vn 0.7373 0.6593 -0.1471
vn 0.5573 0.7169 0.4188
vn 0.6824 0.0000 -0.7310
vn 0.6728 0.7367 0.0686
vn -0.5003 -0.6362 -0.5874
vn 0.8212 -0.3995 -0.4074
vn -0.8103 0.3749 0.4503
vn 0.4858 0.6651 0.5671
vn 0.5929 0.0000 0.8053
vn -0.5929 -0.0000 -0.8053
vn -0.8053 0.0000 0.5929
vn 0.8053 -0.0000 -0.5929
vn -0.1973 0.8764 0.4392
vn 0.1973 0.8764 0.4392
usemtl Material.015
s 1
f 19/1/1 5/2/1 7/3/1 20/4/1
f 105/5/2 14/6/2 15/7/2 106/8/2
f 6/9/3 19/1/3 20/4/3 8/10/3
f 41/11/4 39/12/4 3/13/4 112/14/4
f 5/15/5 109/16/5 107/17/5 16/18/5
f 12/19/4 1/20/4 31/21/4 38/22/4 32/23/4 39/12/4 41/11/4 40/24/4
f 80/25/6 81/26/6 68/27/6 66/28/6
f 105/5/2 106/8/2 76/29/2 75/30/2
f 67/31/7 69/32/7 81/26/7 80/25/7
f 113/33/4 112/14/4 64/34/4 100/35/4
f 66/36/5 77/37/5 107/17/5 109/16/5
f 73/38/4 103/39/4 113/33/4 100/35/4 93/40/4 99/41/4 92/42/4 62/43/4
usemtl Material.021
f 12/19/8 13/44/8 2/45/8 1/20/8
f 14/6/9 6/9/9 8/10/9 15/7/9
f 2/45/10 9/46/10 5/47/10 19/48/10 6/9/10 4/49/10 17/50/10 3/13/10 39/51/10 37/52/10 34/53/10 33/54/10 35/55/10 36/56/10 38/22/10 32/23/10 30/57/10 28/58/10 26/59/10 27/60/10 29/61/10 31/21/10 1/20/10
f 20/62/11 21/63/11 15/7/11 8/10/11
f 5/15/12 16/18/12 7/64/12
f 102/65/13 11/66/13 14/6/13 105/5/13
f 40/24/14 104/67/14 13/44/14 12/19/14
f 17/50/15 4/49/15 11/66/15 18/68/15
f 102/65/16 110/69/16 18/68/16 11/66/16
f 3/13/15 17/50/15 18/68/15 10/70/15
f 7/64/17 16/18/17 21/63/17 20/62/17
f 14/6/18 11/66/18 25/71/18 24/72/18
f 11/66/19 4/49/19 22/73/19 25/71/19
f 6/9/20 14/6/20 24/72/20 23/74/20
f 4/49/21 6/9/21 23/74/21 22/73/21
f 10/70/22 101/75/22 112/14/22 3/13/22
f 16/18/23 107/17/23 111/76/23 21/63/23
f 10/70/16 18/68/16 110/69/16 101/75/16
f 9/77/24 108/78/24 109/16/24 5/15/24
f 21/63/25 111/76/25 106/8/25 15/7/25
f 13/44/26 104/67/26 108/78/26 9/77/26
f 136/79/4 137/80/4 60/81/4 61/82/4
f 50/83/4 51/84/4 45/85/4 43/86/4
f 51/84/27 52/87/27 49/88/27 45/85/27
f 52/87/13 53/89/13 47/90/13 49/88/13
f 53/89/28 50/91/28 43/92/28 47/90/28
f 44/93/29 42/94/29 46/95/29 48/96/29
f 49/88/30 47/90/30 43/97/30 45/98/30
f 46/95/28 42/99/28 50/91/28 53/89/28
f 48/96/13 46/95/13 53/89/13 52/87/13
f 44/100/27 48/96/27 52/87/27 51/84/27
f 44/93/29 54/101/29 55/102/29 42/94/29
f 55/103/4 54/104/4 56/105/4 57/106/4
f 51/84/27 56/105/27 54/104/27 44/100/27
f 42/99/28 55/107/28 57/108/28 50/91/28
f 50/83/30 57/106/30 56/105/30 51/84/30
f 135/109/16 136/79/16 61/82/16 58/110/16
f 134/111/13 135/109/13 58/110/13 59/112/13
f 137/80/31 134/111/31 59/112/31 60/81/31
f 73/38/32 62/43/32 63/113/32 74/114/32
f 75/30/33 76/29/33 69/32/33 67/31/33
f 63/113/34 62/43/34 92/42/34 90/115/34 88/116/34 87/117/34 89/118/34 91/119/34 93/40/34 99/41/34 97/120/34 96/121/34 94/122/34 95/123/34 98/124/34 100/125/34 64/34/34 78/126/34 65/127/34 67/31/34 80/128/34 66/129/34 70/130/34
f 81/131/35 69/32/35 76/29/35 82/132/35
f 66/36/36 68/133/36 77/37/36
f 102/65/13 105/5/13 75/30/13 72/134/13
f 103/39/14 73/38/14 74/114/14 104/67/14
f 78/126/37 79/135/37 72/134/37 65/127/37
f 102/65/16 72/134/16 79/135/16 110/69/16
f 64/34/37 71/136/37 79/135/37 78/126/37
f 68/133/38 81/131/38 82/132/38 77/37/38
f 75/30/39 85/137/39 86/138/39 72/134/39
f 72/134/40 86/138/40 83/139/40 65/127/40
f 67/31/41 84/140/41 85/137/41 75/30/41
f 65/127/42 83/139/42 84/140/42 67/31/42
f 71/136/22 64/34/22 112/14/22 101/75/22
f 77/37/23 82/132/23 111/76/23 107/17/23
f 71/136/16 101/75/16 110/69/16 79/135/16
f 70/141/24 66/36/24 109/16/24 108/78/24
f 82/132/25 76/29/25 106/8/25 111/76/25
f 74/114/26 70/141/26 108/78/26 104/67/26
f 136/79/4 133/142/4 132/143/4 137/80/4
f 122/144/4 115/145/4 117/146/4 123/147/4
f 123/147/43 117/146/43 121/148/43 124/149/43
f 124/149/13 121/148/13 119/150/13 125/151/13
f 125/151/44 119/150/44 115/152/44 122/153/44
f 116/154/45 120/155/45 118/156/45 114/157/45
f 121/148/46 117/158/46 115/159/46 119/150/46
f 118/156/44 125/151/44 122/153/44 114/160/44
f 120/155/13 124/149/13 125/151/13 118/156/13
f 116/161/43 123/147/43 124/149/43 120/155/43
f 116/154/45 114/157/45 127/162/45 126/163/45
f 127/164/4 129/165/4 128/166/4 126/167/4
f 123/147/43 116/161/43 126/167/43 128/166/43
f 114/160/44 122/153/44 129/168/44 127/169/44
f 122/144/46 123/147/46 128/166/46 129/165/46
f 135/109/16 130/170/16 133/142/16 136/79/16
f 134/111/13 131/171/13 130/170/13 135/109/13
f 137/80/31 132/143/31 131/171/31 134/111/31
usemtl Material.020
f 2/45/47 13/44/47 9/46/47
f 63/113/48 70/130/48 74/114/48
o Cylinder.001_Cylinder.010
v -1.096376 0.031365 1.358710
v -1.096376 0.024823 1.580964
v -1.096376 0.177355 1.742748
v -1.096376 0.399610 1.749290
v -1.096376 0.561393 1.596757
v -1.096376 0.567935 1.374503
v -1.096376 0.415403 1.212719
v -1.096376 0.193148 1.206178
v -0.857027 0.031365 1.358710
v -0.857028 0.024823 1.580964
v -0.857028 0.177355 1.742748
v -0.857028 0.399610 1.749290
v -0.857027 0.561393 1.596758
v -0.857027 0.567935 1.374503
v -0.857027 0.415403 1.212719
v -0.857027 0.193148 1.206178
v 0.935793 0.031365 1.358710
v 0.935793 0.024823 1.580964
v 0.935793 0.177355 1.742748
v 0.935793 0.399609 1.749290
v 0.935793 0.561393 1.596758
v 0.935793 0.567935 1.374503
v 0.935793 0.415403 1.212719
v 0.935793 0.193148 1.206178
v 0.696445 0.031365 1.358710
v 0.696444 0.024823 1.580964
v 0.696444 0.177355 1.742748
v 0.696444 0.399609 1.749290
v 0.696445 0.561393 1.596757
v 0.696444 0.567935 1.374503
v 0.696445 0.415403 1.212719
v 0.696444 0.193148 1.206178
vt 0.750000 0.490000
vt 0.919706 0.419706
vt 0.990000 0.250000
vt 0.919706 0.080294
vt 0.750000 0.010000
vt 0.580294 0.080294
vt 0.510000 0.250000
vt 0.580294 0.419706
vt 0.125000 0.500000
vt 0.125000 0.666667
vt 0.000000 0.666667
vt 0.000000 0.500000
vt 0.250000 0.500000
vt 0.250000 0.666667
vt 0.375000 0.500000
vt 0.375000 0.666667
vt 0.500000 0.500000
vt 0.500000 0.666667
vt 0.625000 0.500000
vt 0.625000 0.666667
vt 0.750000 0.500000
vt 0.750000 0.666667
vt 0.875000 0.500000
vt 0.875000 0.666667
vt 1.000000 0.500000
vt 1.000000 0.666667
vt 1.000000 0.833333
vt 1.000000 1.000000
vt 0.875000 1.000000
vt 0.875000 0.833333
vt 0.750000 1.000000
vt 0.750000 0.833333
vt 0.625000 1.000000
vt 0.625000 0.833333
vt 0.500000 1.000000
vt 0.500000 0.833333
vt 0.375000 1.000000
vt 0.375000 0.833333
vt 0.250000 1.000000
vt 0.250000 0.833333
vt 0.419706 0.419706
vt 0.250000 0.490000
vt 0.080294 0.419706
vt 0.010000 0.250000
vt 0.080294 0.080294
vt 0.250000 0.010000
vt 0.419706 0.080294
vt 0.490000 0.250000
vt 0.125000 1.000000
vt 0.125000 0.833333
vt 0.000000 1.000000
vt 0.000000 0.833333
vn -1.0000 0.0000 -0.0000
vn -0.0000 -0.6860 -0.7276
vn -0.0000 0.0294 -0.9996
vn 0.0000 0.7276 -0.6860
vn -0.0000 0.9996 0.0294
vn 0.0000 0.6860 0.7276
vn 0.0000 -0.0294 0.9996
vn 0.0000 -0.7276 0.6860
vn 0.0000 -0.9996 -0.0294
vn 1.0000 -0.0000 0.0000
usemtl Material.014
s 1
f 138/172/49 139/173/49 140/174/49 141/175/49 142/176/49 143/177/49 144/178/49 145/179/49
f 145/180/50 153/181/50 146/182/50 138/183/50
f 144/184/51 152/185/51 153/181/51 145/180/51
f 143/186/52 151/187/52 152/185/52 144/184/52
f 142/188/53 150/189/53 151/187/53 143/186/53
f 141/190/54 149/191/54 150/189/54 142/188/54
f 140/192/55 148/193/55 149/191/55 141/190/55
f 139/194/56 147/195/56 148/193/56 140/192/56
f 138/196/57 146/197/57 147/195/57 139/194/57
f 153/181/58 152/185/58 151/187/58 150/189/58 149/191/58 148/193/58 147/195/58 146/197/58
f 162/198/57 154/199/57 155/200/57 163/201/57
f 163/201/56 155/200/56 156/202/56 164/203/56
f 164/203/55 156/202/55 157/204/55 165/205/55
f 165/205/54 157/204/54 158/206/54 166/207/54
f 166/207/53 158/206/53 159/208/53 167/209/53
f 167/209/52 159/208/52 160/210/52 168/211/52
f 155/212/58 154/213/58 161/214/58 160/215/58 159/216/58 158/217/58 157/218/58 156/219/58
f 168/211/51 160/210/51 161/220/51 169/221/51
f 169/221/50 161/220/50 154/222/50 162/223/50
f 169/221/49 162/198/49 163/201/49 164/203/49 165/205/49 166/207/49 167/209/49 168/211/49
o Cylinder.012_Cylinder.018
v 0.935793 0.296379 -1.334655
v 0.935793 0.090953 -1.249565
v 0.935793 0.005863 -1.044140
v 0.935793 0.090953 -0.838714
v 0.935793 0.296379 -0.753625
v 0.935793 0.501804 -0.838715
v 0.935793 0.586894 -1.044140
v 0.935793 0.501804 -1.249565
v 0.696445 0.296379 -1.334655
v 0.696444 0.090953 -1.249565
v 0.696444 0.005863 -1.044140
v 0.696444 0.090953 -0.838714
v 0.696445 0.296379 -0.753625
v 0.696444 0.501804 -0.838715
v 0.696445 0.586894 -1.044140
v 0.696444 0.501804 -1.249565
v -1.096376 0.296379 -1.334655
v -1.096376 0.090953 -1.249565
v -1.096376 0.005863 -1.044140
v -1.096376 0.090953 -0.838714
v -1.096376 0.296379 -0.753625
v -1.096376 0.501804 -0.838714
v -1.096376 0.586894 -1.044140
v -1.096376 0.501804 -1.249565
v -0.857028 0.296379 -1.334655
v -0.857028 0.090953 -1.249565
v -0.857028 0.005863 -1.044140
v -0.857028 0.090953 -0.838714
v -0.857028 0.296379 -0.753625
v -0.857028 0.501804 -0.838714
v -0.857027 0.586894 -1.044140
v -0.857028 0.501804 -1.249565
vt 1.000000 0.833333
vt 1.000000 1.000000
vt 0.875000 1.000000
vt 0.875000 0.833333
vt 0.750000 1.000000
vt 0.750000 0.833333
vt 0.625000 1.000000
vt 0.625000 0.833333
vt 0.500000 1.000000
vt 0.500000 0.833333
vt 0.375000 1.000000
vt 0.375000 0.833333
vt 0.250000 1.000000
vt 0.250000 0.833333
vt 0.419706 0.419706
vt 0.250000 0.490000
vt 0.080294 0.419706
vt 0.010000 0.250000
vt 0.080294 0.080294
vt 0.250000 0.010000
vt 0.419706 0.080294
vt 0.490000 0.250000
vt 0.125000 1.000000
vt 0.125000 0.833333
vt 0.000000 1.000000
vt 0.000000 0.833333
vt 0.750000 0.490000
vt 0.919706 0.419706
vt 0.990000 0.250000
vt 0.919706 0.080294
vt 0.750000 0.010000
vt 0.580294 0.080294
vt 0.510000 0.250000
vt 0.580294 0.419706
vt 0.125000 0.500000
vt 0.125000 0.666667
vt 0.000000 0.666667
vt 0.000000 0.500000
vt 0.250000 0.500000
vt 0.250000 0.666667
vt 0.375000 0.500000
vt 0.375000 0.666667
vt 0.500000 0.500000
vt 0.500000 0.666667
vt 0.625000 0.500000
vt 0.625000 0.666667
vt 0.750000 0.500000
vt 0.750000 0.666667
vt 0.875000 0.500000
vt 0.875000 0.666667
vt 1.000000 0.500000
vt 1.000000 0.666667
vn 0.0000 -0.3827 -0.9239
vn 0.0000 -0.9239 -0.3827
vn 0.0000 -0.9239 0.3827
vn 0.0000 -0.3827 0.9239
vn -0.0000 0.3827 0.9239
vn 0.0000 0.9239 0.3827
vn 1.0000 -0.0000 0.0000
vn 0.0000 0.9239 -0.3827
vn 0.0000 0.3827 -0.9239
vn -1.0000 0.0000 -0.0000
usemtl Material.014
s 1
f 178/224/59 170/225/59 171/226/59 179/227/59
f 179/227/60 171/226/60 172/228/60 180/229/60
f 180/229/61 172/228/61 173/230/61 181/231/61
f 181/231/62 173/230/62 174/232/62 182/233/62
f 182/233/63 174/232/63 175/234/63 183/235/63
f 183/235/64 175/234/64 176/236/64 184/237/64
f 171/238/65 170/239/65 177/240/65 176/241/65 175/242/65 174/243/65 173/244/65 172/245/65
f 184/237/66 176/236/66 177/246/66 185/247/66
f 185/247/67 177/246/67 170/248/67 178/249/67
f 185/247/68 178/224/68 179/227/68 180/229/68 181/231/68 182/233/68 183/235/68 184/237/68
f 186/250/68 187/251/68 188/252/68 189/253/68 190/254/68 191/255/68 192/256/68 193/257/68
f 193/258/67 201/259/67 194/260/67 186/261/67
f 192/262/66 200/263/66 201/259/66 193/258/66
f 191/264/64 199/265/64 200/263/64 192/262/64
f 190/266/63 198/267/63 199/265/63 191/264/63
f 189/268/62 197/269/62 198/267/62 190/266/62
f 188/270/61 196/271/61 197/269/61 189/268/61
f 187/272/60 195/273/60 196/271/60 188/270/60
f 186/274/59 194/275/59 195/273/59 187/272/59
f 201/259/65 200/263/65 199/265/65 198/267/65 197/269/65 196/271/65 195/273/65 194/275/65
